<svg version="1.2" xmlns="http://www.w3.org/2000/svg" viewBox="0 0 1280 1244" width="1280" height="1244">
	<title>27820-svg</title>
	<style>
		.s0 { fill: #ffffff } 
	</style>
	<g id="Layer">
		<path id="Layer" class="s0" d="m1237.8 1.5c-32 6.4-78.2 37-144.3 95.4-30.3 26.8-54.1 49.6-106.6 102.1-84.5 84.5-142.4 146-296.4 315-72.9 80-116.4 127.5-143.9 157-76.2 81.8-122.6 126.6-133.2 128.6-7.5 1.4-35.5-0.3-51.4-3.1-35.1-6.1-86-20.4-165.5-46.5-109.9-36-133.8-42.5-158.5-42.5-12.8 0-13.8 0.1-19.8 2.9-7.6 3.5-13.3 9.6-16.2 17.2-4.2 11.2-2.7 17 11.5 45.9 45.4 92.1 125.2 198.4 224.5 298.9 93.2 94.3 173 153.5 227.5 168.7 10.6 3 28.2 3.3 36.9 0.6 8.7-2.7 17.4-11.3 22.6-22.4 12.4-26.6 56.5-98.9 133.8-219.8 49.5-77.2 103.6-160.5 297.7-457.5 161.7-247.4 240.6-370.5 286.5-447 14-23.2 34-58.9 34-60.5 0-0.6-3.9-8.4-8.6-17.2-6.2-11.6-9.2-16.3-10.7-16.7-3.5-0.9-12.7-0.5-19.9 0.9z"/>
	</g>
</svg>